<svg width="23" height="15" viewBox="0 0 23 15" fill="none" xmlns="http://www.w3.org/2000/svg">
<g clip-path="url(#clip0_39_31)">
<path d="M1.31999 0H21.6808C22.0289 0.00310673 22.3615 0.129753 22.6068 0.352504C22.852 0.575254 22.9901 0.876173 22.991 1.19007V13.8099C22.993 14.0507 22.9133 14.2863 22.7627 14.4851C22.7356 14.5488 22.6935 14.6064 22.6392 14.654C22.6027 14.6854 22.561 14.7116 22.5156 14.7316C22.2795 14.9113 21.9805 15.01 21.6715 15.0101H1.31999C0.973552 15.0071 0.642272 14.8816 0.397294 14.6606C0.152316 14.4397 0.013179 14.1409 0.00976562 13.8285V1.19007C0.0107332 0.876173 0.14879 0.575254 0.394029 0.352504C0.639268 0.129753 0.971943 0.00310673 1.31999 0ZM1.26383 13.3086L8.14811 6.85685L1.26383 1.6104V13.3086ZM9.18506 7.66205L1.8291 14.0868H21.1081L14.0797 7.66205L12.0208 9.21675C11.93 9.2847 11.8158 9.32189 11.6979 9.32189C11.5799 9.32189 11.4657 9.2847 11.375 9.21675L9.18506 7.66205ZM15.0998 6.84504L21.737 13.3609V1.553L15.0998 6.84504ZM1.91146 0.913234L11.6782 8.05199L21.0145 0.913234H1.91146Z" fill="black"/>
</g>
<defs>
<clipPath id="clip0_39_31">
<rect width="23" height="15" fill="white"/>
</clipPath>
</defs>
</svg>
