<svg width="184" height="26" viewBox="0 0 184 26" fill="none" xmlns="http://www.w3.org/2000/svg">
<path d="M7.61231 25.7678V14.033H11.0827L11.5986 9.43844H7.61231V6.5119C7.61231 5.18608 7.93613 4.27834 9.60419 4.27834H11.7178V0.182049C10.6899 0.0560537 9.65565 -0.00408059 8.62143 0.000214712C5.55391 0.000214712 3.44782 2.13641 3.44782 6.05803V9.42985H0V14.0244H3.45535V25.7678H7.61231Z" fill="white"/>
<path d="M120.869 7.15456C120.886 7.40512 120.886 7.65425 120.886 7.90338C120.886 15.5275 115.799 24.3129 106.502 24.3129C103.638 24.3129 100.977 23.3665 98.7378 21.7228C99.1445 21.7758 99.536 21.7944 99.959 21.7944C102.322 21.7944 104.498 20.8838 106.236 19.3303C104.013 19.2773 102.15 17.6165 101.508 15.3314C101.82 15.3844 102.134 15.4202 102.463 15.4202C102.916 15.4202 103.372 15.3486 103.795 15.224C101.476 14.6885 99.7406 12.3676 99.7406 9.56423V9.49264C100.415 9.92074 101.197 10.1885 102.025 10.2243C100.663 9.19054 99.7708 7.4223 99.7708 5.42212C99.7708 4.35116 100.021 3.36896 100.459 2.51277C102.947 6.01058 106.689 8.29711 110.884 8.54767C110.806 8.11814 110.758 7.67286 110.758 7.22615C110.758 4.04762 113.012 1.45898 115.814 1.45898C117.27 1.45898 118.584 2.15482 119.508 3.28019C120.65 3.02963 121.744 2.54713 122.716 1.88708C122.34 3.22579 121.541 4.35116 120.493 5.06561C121.511 4.93961 122.497 4.6189 123.403 4.17219C122.716 5.31474 121.856 6.33273 120.869 7.15456Z" fill="white"/>
<path fill-rule="evenodd" clip-rule="evenodd" d="M60.4566 0H49.1605C46.0544 0 43.5125 2.89837 43.5125 6.44296V19.3289C43.5125 22.8722 46.0544 25.7718 49.1605 25.7718H60.4566C63.5627 25.7718 66.1046 22.8722 66.1046 19.3289V6.44296C66.1046 2.89837 63.5627 0 60.4566 0ZM54.8085 18.2548C52.2087 18.2548 50.1017 15.8503 50.1017 12.8859C50.1017 9.92023 52.2087 7.51668 54.8085 7.51668C57.4072 7.51668 59.5153 9.92023 59.5153 12.8859C59.5153 15.8503 57.4072 18.2548 54.8085 18.2548ZM59.5153 5.90594C59.5153 6.79539 60.1468 7.51668 60.9273 7.51668C61.7079 7.51668 62.3394 6.79539 62.3394 5.90594C62.3394 5.01649 61.7079 4.2952 60.9273 4.2952C60.1468 4.2952 59.5153 5.01649 59.5153 5.90594Z" fill="white"/>
<path fill-rule="evenodd" clip-rule="evenodd" d="M180.28 2.47927C181.487 2.65868 182.64 3.99782 182.787 5.39438C183.307 10.5125 183.307 15.4756 182.787 20.5922C182.64 21.9888 181.487 23.3295 180.28 23.5073C172.919 24.5506 165.475 24.5506 158.117 23.5073C156.909 23.3291 155.755 21.9888 155.608 20.5922C155.089 15.4752 155.089 10.5125 155.608 5.39438C155.755 3.99782 156.909 2.65828 158.117 2.47927C165.475 1.43595 172.919 1.43595 180.28 2.47927ZM166.868 7.67838V18.3098L173.857 12.9943L166.868 7.67838Z" fill="white"/>
</svg>
